PathFileType	4	(X/Y/Z)	D:\TRACE\v60_Jaco2_6-2-23\v60_baseline_2-platform.trc
DataRate	CameraRate	NumFrames	NumMarkers	Units	OrigDataRate	OrigDataStartFrame	OrigNumFrames
100.00	100.00	      69	5	mm	100.00	1	      7303
Frame#	Time	Left_Front			Right_Front			Left_Aft			Right_Aft			Post			
		X1	Y1	Z1	X2	Y2	Z2	X3	Y3	Z3	X4	Y4	Z4	X5	Y5	Z5	

1	0.000	-800.59784	8.79479	-638.78174	769.37677	10.13300	-644.39679	-708.54724	7.87454	496.06195	732.90894	6.54639	505.94138	-14.20370	1308.20239	-961.61865	
2	0.010	-800.58948	8.78088	-638.79767	769.33875	10.13635	-644.40070	-708.56183	7.85012	496.09290	732.91437	6.54585	505.93909	-14.28235	1308.22974	-961.67896	
3	0.020	-800.60297	8.76382	-638.78601	769.30243	10.14767	-644.39465	-708.55640	7.85138	496.04428	732.91290	6.52221	505.94806	-14.35932	1308.20728	-961.66541	
4	0.030	-800.61200	8.82188	-638.76099	769.24579	10.13085	-644.44080	-708.52020	7.85651	496.06940	732.88763	6.55103	505.94302	-14.22356	1308.22131	-961.60547	
5	0.040	-800.55322	8.77787	-638.78418	769.37305	10.13589	-644.40558	-708.54004	7.86408	496.08591	732.93829	6.54649	505.91824	-14.26388	1308.22437	-961.65704	
6	0.050	-800.55878	8.89766	-638.79907	769.32111	10.16366	-644.38727	-708.57050	7.91424	496.08832	732.51398	6.59385	506.14633	-14.26117	1308.22327	-961.60693	
7	0.060	-800.62518	8.91006	-638.77777	769.38391	10.12197	-644.40918	-708.55475	7.88619	496.03702	732.89655	6.52715	505.96350	-14.17883	1308.21460	-961.62830	
8	0.070	-800.62103	8.84093	-638.71863	769.29639	10.15740	-644.39227	-708.57178	7.87162	496.05862	732.89252	6.53249	505.95966	-14.29570	1308.18982	-961.60901	
9	0.080	-800.63318	8.80597	-638.72235	769.35052	10.09783	-644.40063	-708.54547	7.87213	496.08484	732.86700	6.51463	505.95309	-14.28169	1308.17773	-961.62244	
10	0.090	-800.60278	8.85122	-638.75189	769.33649	10.11025	-644.39661	-708.55518	7.84394	496.06006	732.92084	6.51642	505.92450	-14.24686	1308.16724	-961.64465	
11	0.100	-800.62335	8.83864	-638.73132	769.29919	10.15594	-644.39673	-708.53918	7.89711	496.07239	732.96124	6.53085	505.91385	-14.15478	1308.20886	-961.63885	
12	0.110	-800.59283	8.83206	-638.78125	769.38013	10.14011	-644.39764	-708.54773	7.88571	496.05469	732.94312	6.53362	505.91183	-14.19723	1308.21484	-961.66669	
13	0.120	-800.61017	8.82216	-638.76135	769.36005	10.12794	-644.38641	-708.57397	7.88740	496.07935	732.90826	6.55094	505.92764	-14.20081	1308.19141	-961.67249	
14	0.130	-800.65100	8.84052	-638.70038	769.29871	10.14488	-644.40906	-708.56067	7.88205	496.05374	732.49915	6.56528	506.10886	-14.16587	1308.17639	-961.65863	
15	0.140	-800.57849	8.75062	-638.73657	769.39978	10.14955	-644.35767	-708.53021	7.86929	496.08063	732.92816	6.53406	505.94354	-14.16942	1308.18835	-961.68170	
16	0.150	-800.57593	8.87172	-638.77679	769.37439	10.14406	-644.38068	-708.54126	7.89511	496.06900	732.94617	6.56114	505.95563	-14.13812	1308.20032	-961.67975	
17	0.160	-800.58899	8.87368	-638.79803	769.37805	10.13899	-644.39288	-708.54065	7.85634	496.09796	732.96954	6.53808	505.90311	-14.19106	1308.20923	-961.66565	
18	0.170	-800.61255	8.84824	-638.71790	769.32458	10.16654	-644.40771	-708.55219	7.88928	496.08783	732.90637	6.53316	505.92596	-14.21409	1308.19775	-961.61316	
19	0.180	-800.63837	8.80151	-638.71686	769.29425	10.15589	-644.39404	-708.55804	7.85823	496.07495	732.93213	6.53283	505.92014	-14.24657	1308.19336	-961.63129	
20	0.190	-800.62262	8.81639	-638.73889	769.32245	10.12660	-644.41364	-708.55963	7.88525	496.05203	732.89203	6.51708	505.95081	-14.20408	1308.17114	-961.63782	
21	0.200	-800.63940	8.83908	-638.75513	769.30597	10.15797	-644.39758	-708.55115	7.87548	496.08273	732.89551	6.53226	505.96841	-14.22533	1308.18750	-961.62622	
22	0.210	-800.60699	8.80619	-638.79022	769.34094	10.13996	-644.41644	-708.59290	7.92488	496.08380	732.48865	6.59612	506.13867	-14.18095	1308.20020	-961.61853	
23	0.220	-800.58838	8.82303	-638.76801	769.28302	10.18168	-644.40985	-708.54980	7.84423	496.06641	732.93317	6.51997	505.92252	-14.24779	1308.21936	-961.69012	
24	0.230	-800.64038	8.80077	-638.76715	769.34210	10.14885	-644.43396	-708.55426	7.83876	496.07092	732.90277	6.53931	505.93195	-14.21770	1308.18896	-961.61859	
25	0.240	-800.65027	8.82137	-638.71472	769.31458	10.15392	-644.39136	-708.55103	7.84429	496.05435	732.92102	6.54087	505.90683	-14.21420	1308.22498	-961.63873	
26	0.250	-800.59235	8.79698	-638.78339	769.36163	10.13701	-644.37494	-708.53906	7.85015	496.02219	732.90509	6.54880	505.93234	-14.17763	1308.18982	-961.62628	
27	0.260	-800.59601	8.77323	-638.81763	769.35425	10.13817	-644.39392	-708.56537	7.88079	496.03824	732.89832	6.54206	505.90530	-14.24455	1308.21179	-961.63361	
28	0.270	-800.60681	8.85382	-638.80853	769.34058	10.13394	-644.39685	-708.55988	7.88334	496.01865	732.91937	6.51997	505.90341	-14.23069	1308.21802	-961.67761	
29	0.280	-800.59045	8.86779	-638.77539	769.34839	10.14057	-644.39728	-708.60986	7.92458	496.05646	732.89764	6.53345	505.91116	-14.25695	1308.22339	-961.65479	
30	0.290	-800.65424	8.84618	-638.69946	769.32251	10.12307	-644.40155	-708.57605	7.92609	496.05255	732.88434	6.53198	505.93268	-14.28343	1308.16907	-961.63269	
31	0.300	-800.63647	8.82159	-638.78748	769.36432	10.12390	-644.36420	-708.57513	7.89400	496.09897	732.88599	6.51321	505.94598	-14.24811	1308.17468	-961.62335	
32	0.310	-800.62970	8.85505	-638.73383	769.38953	10.09826	-644.36975	-708.54968	7.88164	496.05441	732.91339	6.52790	505.93954	-14.19110	1308.16858	-961.63196	
33	0.320	-800.58667	8.80981	-638.78113	769.30713	10.17263	-644.39331	-708.56952	7.87125	496.07428	732.87634	6.52386	505.94070	-14.20934	1308.18311	-961.61774	
34	0.330	-800.54761	8.75441	-638.83405	769.27222	10.13530	-644.43066	-708.54980	7.87096	496.06769	732.93298	6.52481	505.89664	-14.25665	1308.22400	-961.66473	
35	0.340	-800.59625	8.79822	-638.74091	769.35059	10.12704	-644.36981	-708.58160	7.88300	496.07397	732.89490	6.54657	505.90518	-14.26547	1308.18311	-961.63348	
36	0.350	-800.63428	8.87047	-638.71100	769.35663	10.12880	-644.40674	-708.55762	7.87973	496.07095	732.90167	6.53382	505.93323	-14.21483	1308.21863	-961.67322	
37	0.360	-800.59735	8.79169	-638.77582	769.29541	10.19037	-644.41870	-708.53925	7.88392	496.11942	732.90021	6.53960	505.96231	-14.26707	1308.21509	-961.68188	
38	0.370	-800.60394	8.84802	-638.75732	769.39215	10.12196	-644.35144	-708.54669	7.85942	496.06982	732.92755	6.52130	505.92398	-14.20583	1308.22534	-961.64880	
39	0.380	-800.62122	8.81129	-638.75195	769.32599	10.12838	-644.39355	-708.61591	7.93550	496.06473	732.89264	6.54007	505.92502	-14.22857	1308.19104	-961.65411	
40	0.390	-800.59119	8.81809	-638.80188	769.33954	10.15700	-644.37933	-708.52386	7.83951	496.06384	732.90930	6.52394	505.92242	-14.23926	1308.19885	-961.64392	
41	0.400	-800.63715	8.83761	-638.72968	769.33826	10.11370	-644.40753	-708.55322	7.86668	496.10788	732.90228	6.50544	505.90305	-14.29838	1308.17468	-961.61060	
42	0.410	-800.61914	8.80898	-638.72668	769.36371	10.12192	-644.38293	-708.55298	7.87288	496.06750	732.89331	6.51547	505.92999	-14.29625	1308.23169	-961.64587	
43	0.420	-800.61121	8.81795	-638.75031	769.36340	10.14349	-644.39850	-708.57379	7.89164	496.05441	732.88763	6.54512	505.91425	-14.26695	1308.22375	-961.63330	
44	0.430	-800.58868	8.80100	-638.75964	769.32867	10.19323	-644.39349	-708.54736	7.90859	496.05600	732.91193	6.52484	505.92133	-14.25035	1308.22070	-961.62933	
45	0.440	-800.56104	8.79739	-638.80475	769.34735	10.14688	-644.38641	-708.51605	7.86205	496.14783	732.88947	6.51521	505.93195	-14.16474	1308.17786	-961.61005	
46	0.450	-800.57050	8.81268	-638.81268	769.36487	10.12728	-644.36475	-708.50897	7.85628	496.07669	732.91296	6.53031	505.95694	-14.22210	1308.20105	-961.59674	
47	0.460	-800.59796	8.82087	-638.73029	769.41589	10.14508	-644.34167	-708.51318	7.83484	496.11337	732.53015	6.59844	506.14334	-14.22866	1308.25220	-961.67389	
48	0.470	-800.62390	8.87165	-638.77863	769.30780	10.14521	-644.38940	-708.55829	7.86665	496.07538	732.92511	6.53653	505.93549	-14.23403	1308.20337	-961.64136	
49	0.480	-800.57153	8.81283	-638.82520	769.35858	10.12401	-644.38062	-708.55231	7.87884	496.07806	732.90436	6.55270	505.96289	-14.22775	1308.19104	-961.64673	
50	0.490	-800.59027	8.82606	-638.77258	769.35712	10.10069	-644.37268	-708.53937	7.89066	496.08975	732.92706	6.54625	505.90936	-14.17844	1308.20715	-961.63593	
51	0.500	-800.60931	8.78196	-638.76050	769.32983	10.17381	-644.34344	-708.58936	7.88021	496.04852	732.44019	6.56340	506.16791	-14.24767	1308.20459	-961.67773	
52	0.510	-800.59778	8.81984	-638.74988	769.30969	10.15275	-644.39954	-708.54279	7.86585	496.07315	732.88629	6.53136	505.92221	-14.21860	1308.19104	-961.67261	
53	0.520	-800.61108	8.79551	-638.78754	769.40051	10.14499	-644.35699	-708.59064	7.89102	496.01520	732.87964	6.53079	505.91229	-14.18810	1308.17786	-961.56952	
54	0.530	-800.62958	8.83494	-638.77173	769.32788	10.11954	-644.42609	-708.54950	7.87180	496.06958	732.90601	6.53150	505.91888	-14.23460	1308.19080	-961.64960	
55	0.540	-800.60236	8.80368	-638.78546	769.34955	10.14767	-644.39111	-708.55780	7.86578	496.06696	732.92877	6.53460	505.93927	-14.17674	1308.18726	-961.58990	
56	0.550	-800.60736	8.79231	-638.77179	769.35254	10.12972	-644.39240	-708.53864	7.88481	496.07513	732.87579	6.52386	505.97299	-14.26472	1308.19946	-961.63837	
57	0.560	-800.59601	8.84508	-638.76233	769.36182	10.12430	-644.41187	-708.54041	7.86947	496.09900	732.87671	6.53653	505.94501	-14.23174	1308.20251	-961.59204	
58	0.570	-800.60632	8.87071	-638.79254	769.37030	10.14634	-644.39337	-708.57257	7.88577	496.09277	732.94067	6.54820	505.94473	-14.16472	1308.24219	-961.66016	
59	0.580	-800.60950	8.81875	-638.75085	769.37555	10.12749	-644.38202	-708.53656	7.85077	496.06351	732.87134	6.51600	505.94550	-14.23308	1308.22681	-961.61359	
60	0.590	-800.59460	8.81449	-638.79218	769.36444	10.12435	-644.39990	-708.53870	7.87154	496.08200	732.89447	6.52724	505.93518	-14.19899	1308.20190	-961.65814	
61	0.600	-800.62177	8.83725	-638.75458	769.31665	10.10914	-644.38745	-708.57758	7.87125	496.07233	732.86884	6.51276	505.97113	-14.14471	1308.19031	-961.62860	
62	0.610	-800.62128	8.84179	-638.71411	769.31305	10.12095	-644.40167	-708.52380	7.82630	496.06931	732.86053	6.51430	505.93280	-14.23558	1308.19238	-961.67255	
63	0.620	-800.61011	8.76880	-638.78198	769.35480	10.13055	-644.39911	-708.53351	7.90226	496.07916	732.92328	6.53033	505.93442	-14.27855	1308.17798	-961.63312	
64	0.630	-800.58978	8.79919	-638.79352	769.31635	10.18142	-644.37982	-708.56512	7.90058	496.06311	732.87427	6.54187	505.94324	-14.25100	1308.22998	-961.65356	
65	0.640	-800.65515	8.76788	-638.78827	769.39301	10.18957	-644.39941	-708.54443	7.91989	496.04730	732.88751	6.54255	506.00500	-14.13683	1308.20471	-961.64557	
66	0.650	-800.64294	8.64406	-638.82483	769.35394	10.16430	-644.39911	-708.48950	7.83728	496.08197	732.66907	6.25296	505.79904	-14.21889	1308.21875	-961.67505	
67	0.660	-800.64349	8.65461	-638.80835	769.30908	10.08722	-644.39044	-708.54602	7.86113	496.07239	732.31262	5.79492	505.29919	-14.20643	1308.18066	-961.59979	
68	0.670	-800.63538	8.70570	-638.82025	769.32874	10.15015	-644.43311	-708.52716	7.88346	496.10004	733.49261	6.93142	505.72574	-14.25898	1308.16675	-961.66132	
69	0.680	-800.60431	8.79317	-638.78918	769.33264	10.19930	-644.43109	-708.49713	7.84467	496.08206	733.53558	6.94090	505.72073	-14.17505	1308.19556	-961.68079	
